<svg width="24" height="28" viewBox="0 0 24 28" fill="none" xmlns="http://www.w3.org/2000/svg">
<path fill-rule="evenodd" clip-rule="evenodd" d="M9.83738 2.75C9.56033 2.75 9.30459 2.89864 9.16745 3.13936L3.59082 12.9281C2.85159 14.2257 2.54138 15.7237 2.7045 17.2081L3.29307 22.5642C3.39779 23.5172 4.14591 24.272 5.09791 24.3853L8.62633 24.805C10.9556 25.0821 13.3173 24.8419 15.5431 24.1016C16.6424 23.736 17.5228 22.9016 17.947 21.8237L20.7871 14.6061C20.8566 14.4296 20.9046 14.2454 20.9301 14.0575C21.1455 12.4707 19.7564 11.1321 18.1786 11.4061L12.4856 12.3949C10.6872 12.7072 9.13404 11.1203 9.48502 9.32907L10.594 3.66929C10.6874 3.19302 10.3227 2.75 9.83738 2.75ZM6.99522 1.90185C7.57703 0.880602 8.66201 0.250011 9.83736 0.25C11.8963 0.249982 13.4433 2.12946 13.0474 4.15002L11.9384 9.80979C11.9336 9.83404 11.9362 9.84885 11.9395 9.85949C11.9436 9.87258 11.9521 9.88794 11.966 9.90217C11.9799 9.9164 11.9951 9.92517 12.0081 9.92957C12.0187 9.93314 12.0334 9.936 12.0578 9.93177L17.7508 8.94299C20.9944 8.37962 23.8502 11.1315 23.4074 14.3938C23.3549 14.7801 23.2563 15.1587 23.1135 15.5215L20.2734 22.7391C19.5779 24.5065 18.1344 25.8744 16.3321 26.4738C13.7574 27.3302 11.0254 27.608 8.33101 27.2875L4.8026 26.8678C2.69559 26.6171 1.0398 24.9465 0.808033 22.8373L0.219461 17.4812C-0.00123088 15.4728 0.418467 13.4461 1.41859 11.6906L6.99522 1.90185Z" fill="#65869B"/>
</svg>
