<svg width="34" height="24" viewBox="0 0 34 24" fill="none" xmlns="http://www.w3.org/2000/svg">
<path fill-rule="evenodd" clip-rule="evenodd" d="M10.75 12C10.75 8.54822 13.5482 5.75 17 5.75C20.4518 5.75 23.25 8.54822 23.25 12C23.25 15.4518 20.4518 18.25 17 18.25C13.5482 18.25 10.75 15.4518 10.75 12ZM17 8.25C14.9289 8.25 13.25 9.92893 13.25 12C13.25 14.0711 14.9289 15.75 17 15.75C19.0711 15.75 20.75 14.0711 20.75 12C20.75 9.92893 19.0711 8.25 17 8.25Z" fill="#65869B"/>
<path fill-rule="evenodd" clip-rule="evenodd" d="M4.20571 9.74392C3.50718 10.7505 3.25 11.5378 3.25 12C3.25 12.4622 3.50718 13.2495 4.20571 14.2561C4.88095 15.2291 5.88462 16.2838 7.15445 17.2584C9.69964 19.2118 13.1891 20.75 17 20.75C20.8109 20.75 24.3004 19.2118 26.8455 17.2584C28.1154 16.2838 29.119 15.2291 29.7943 14.2561C30.4928 13.2495 30.75 12.4622 30.75 12C30.75 11.5378 30.4928 10.7505 29.7943 9.74392C29.119 8.77093 28.1154 7.7162 26.8455 6.74161C24.3004 4.7882 20.8109 3.25 17 3.25C13.1891 3.25 9.69964 4.7882 7.15445 6.74161C5.88462 7.7162 4.88095 8.77093 4.20571 9.74392ZM5.63234 4.75839C8.51609 2.54513 12.5266 0.75 17 0.75C21.4734 0.75 25.4839 2.54513 28.3677 4.75839C29.8123 5.86714 31.0053 7.10407 31.8482 8.31858C32.6677 9.49952 33.25 10.7955 33.25 12C33.25 13.2045 32.6677 14.5005 31.8482 15.6814C31.0053 16.8959 29.8123 18.1329 28.3677 19.2416C25.4839 21.4549 21.4734 23.25 17 23.25C12.5266 23.25 8.51609 21.4549 5.63234 19.2416C4.18771 18.1329 2.99468 16.8959 2.15184 15.6814C1.33228 14.5005 0.75 13.2045 0.75 12C0.75 10.7955 1.33228 9.49952 2.15184 8.31858C2.99468 7.10407 4.18771 5.86714 5.63234 4.75839Z" fill="#65869B"/>
</svg>
