<svg width="471" height="548" viewBox="0 0 471 548" fill="none" xmlns="http://www.w3.org/2000/svg">
<rect width="471" height="547.01" rx="30" fill="#E0E7EC"/>
<path d="M23 18C23 15.2386 25.2386 13 28 13H385C387.761 13 390 15.2386 390 18V45C390 47.7614 387.761 50 385 50H28C25.2386 50 23 47.7614 23 45V18Z" fill="white"/>
<circle cx="425" cy="32" r="19" fill="white"/>
<circle cx="154" cy="96" r="10" fill="#505050"/>
<circle cx="118" cy="297" r="10" fill="#505050"/>
<circle cx="118" cy="431" r="10" fill="#505050"/>
<rect x="23" y="92" width="111" height="8" rx="4" fill="#505050"/>
<rect x="23" y="159" width="97" height="8" rx="4" fill="#505050"/>
<rect x="23" y="226" width="74" height="8" rx="4" fill="#505050"/>
<rect x="23" y="293" width="72" height="8" rx="4" fill="#505050"/>
<rect x="23" y="360" width="121" height="8" rx="4" fill="#505050"/>
<rect x="23" y="427" width="72" height="8" rx="4" fill="#505050"/>
<rect x="23" y="494" width="85" height="8" rx="4" fill="#505050"/>
<circle cx="45" cy="32" r="5" fill="#E0E7EC"/>
<circle cx="63" cy="32" r="5" fill="#E0E7EC"/>
<circle cx="81" cy="32" r="5" fill="#E0E7EC"/>
<line x1="425" y1="41" x2="425" y2="23" stroke="black" strokeWidth="2"/>
<line x1="432" y1="41" x2="432" y2="23" stroke="black" strokeWidth="2"/>
<line x1="418" y1="41" x2="418" y2="23" stroke="black" strokeWidth="2"/>
<rect x="200" y="68" width="237" height="55" rx="5" fill="white"/>
<circle cx="221" cy="96" r="5" fill="#E0E7EC"/>
<circle cx="239" cy="96" r="5" fill="#E0E7EC"/>
<circle cx="257" cy="96" r="5" fill="#E0E7EC"/>
<line x1="378" y1="78" x2="378" y2="114" stroke="#E0E7EC" strokeWidth="2"/>
<line x1="396.061" y1="90.9393" x2="408.061" y2="102.939" stroke="#E0E7EC" strokeWidth="3"/>
<line x1="405.939" y1="102.939" x2="417.939" y2="90.9393" stroke="#E0E7EC" strokeWidth="3"/>
<rect x="200" y="202" width="237" height="55" rx="5" fill="white"/>
<circle cx="221" cy="230" r="5" fill="#E0E7EC"/>
<circle cx="239" cy="230" r="5" fill="#E0E7EC"/>
<circle cx="257" cy="230" r="5" fill="#E0E7EC"/>
<line x1="378" y1="212" x2="378" y2="248" stroke="#E0E7EC" strokeWidth="2"/>
<line x1="396.061" y1="224.939" x2="408.061" y2="236.939" stroke="#E0E7EC" strokeWidth="3"/>
<line x1="405.939" y1="236.939" x2="417.939" y2="224.939" stroke="#E0E7EC" strokeWidth="3"/>
<rect x="200" y="269" width="237" height="55" rx="5" fill="white"/>
<circle cx="221" cy="297" r="5" fill="#E0E7EC"/>
<circle cx="239" cy="297" r="5" fill="#E0E7EC"/>
<circle cx="257" cy="297" r="5" fill="#E0E7EC"/>
<line x1="378" y1="279" x2="378" y2="315" stroke="#E0E7EC" strokeWidth="2"/>
<line x1="396.061" y1="291.939" x2="408.061" y2="303.939" stroke="#E0E7EC" strokeWidth="3"/>
<line x1="405.939" y1="303.939" x2="417.939" y2="291.939" stroke="#E0E7EC" strokeWidth="3"/>
<rect x="200" y="336" width="237" height="55" rx="5" fill="white"/>
<circle cx="221" cy="364" r="5" fill="#E0E7EC"/>
<circle cx="239" cy="364" r="5" fill="#E0E7EC"/>
<circle cx="257" cy="364" r="5" fill="#E0E7EC"/>
<line x1="378" y1="346" x2="378" y2="382" stroke="#E0E7EC" strokeWidth="2"/>
<line x1="396.061" y1="358.939" x2="408.061" y2="370.939" stroke="#E0E7EC" strokeWidth="3"/>
<line x1="405.939" y1="370.939" x2="417.939" y2="358.939" stroke="#E0E7EC" strokeWidth="3"/>
<rect x="200" y="403" width="237" height="55" rx="5" fill="white"/>
<circle cx="221" cy="431" r="5" fill="#E0E7EC"/>
<circle cx="239" cy="431" r="5" fill="#E0E7EC"/>
<circle cx="257" cy="431" r="5" fill="#E0E7EC"/>
<line x1="378" y1="413" x2="378" y2="449" stroke="#E0E7EC" strokeWidth="2"/>
<line x1="396.061" y1="425.939" x2="408.061" y2="437.939" stroke="#E0E7EC" strokeWidth="3"/>
<line x1="405.939" y1="437.939" x2="417.939" y2="425.939" stroke="#E0E7EC" strokeWidth="3"/>
<rect x="200" y="135" width="237" height="55" rx="5" fill="white"/>
<circle cx="221" cy="163" r="5" fill="#E0E7EC"/>
<circle cx="239" cy="163" r="5" fill="#E0E7EC"/>
<circle cx="257" cy="163" r="5" fill="#E0E7EC"/>
<line x1="378" y1="145" x2="378" y2="181" stroke="#E0E7EC" strokeWidth="2"/>
<line x1="396.061" y1="157.939" x2="408.061" y2="169.939" stroke="#E0E7EC" strokeWidth="3"/>
<line x1="405.939" y1="169.939" x2="417.939" y2="157.939" stroke="#E0E7EC" strokeWidth="3"/>
<rect x="200" y="470" width="237" height="55" rx="5" fill="white"/>
<circle cx="221" cy="498" r="5" fill="#E0E7EC"/>
<circle cx="239" cy="498" r="5" fill="#E0E7EC"/>
<circle cx="257" cy="498" r="5" fill="#E0E7EC"/>
<line x1="378" y1="480" x2="378" y2="516" stroke="#E0E7EC" strokeWidth="2"/>
<line x1="396.061" y1="492.939" x2="408.061" y2="504.939" stroke="#E0E7EC" strokeWidth="3"/>
<line x1="405.939" y1="504.939" x2="417.939" y2="492.939" stroke="#E0E7EC" strokeWidth="3"/>
</svg>
