<svg width="418" height="504" viewBox="0 0 418 504" fill="none" xmlns="http://www.w3.org/2000/svg">
<g clip-path="url(#clip0_752_1092)">
<rect width="418" height="504" rx="30" fill="white"/>
<path d="M375.273 115H67.8811C63.7021 115 57 115 57 121.061V155.909C57 156.947 57 161.97 67.8811 161.97H375.273C379.452 161.97 386.154 161.97 386.154 155.909V121.061C386.154 120.023 386.154 115 375.273 115Z" fill="#E0E7EC"/>
<path fill-rule="evenodd" clip-rule="evenodd" d="M103.547 124.091C100.375 124.091 97.8042 125.318 97.8042 126.833V132.316C97.8042 133.83 100.375 135.058 103.547 135.058H350.488C353.661 135.058 356.231 133.83 356.231 132.316V126.833C356.231 125.318 353.661 124.091 350.488 124.091H103.547ZM103.547 141.912C100.375 141.912 97.8042 143.139 97.8042 144.654V150.137C97.8042 151.651 100.375 152.879 103.547 152.879H298.803C301.976 152.879 304.545 151.651 304.545 150.137V144.654C304.545 143.139 301.976 141.912 298.803 141.912H103.547Z" fill="white"/>
<rect x="67.8811" y="122.576" width="16.3217" height="30.303" rx="3" fill="#C6FFC9"/>
<path d="M375.273 177H67.8811C63.7021 177 57 177 57 183.061V217.909C57 218.947 57 223.97 67.8811 223.97H375.273C379.452 223.97 386.154 223.97 386.154 217.909V183.061C386.154 182.023 386.154 177 375.273 177Z" fill="#E0E7EC"/>
<path fill-rule="evenodd" clip-rule="evenodd" d="M103.547 186.091C100.375 186.091 97.8042 187.318 97.8042 188.833V194.316C97.8042 195.83 100.375 197.058 103.547 197.058H350.488C353.661 197.058 356.231 195.83 356.231 194.316V188.833C356.231 187.318 353.661 186.091 350.488 186.091H103.547ZM103.547 203.912C100.375 203.912 97.8042 205.139 97.8042 206.654V212.137C97.8042 213.651 100.375 214.879 103.547 214.879H298.803C301.976 214.879 304.545 213.651 304.545 212.137V206.654C304.545 205.139 301.976 203.912 298.803 203.912H103.547Z" fill="white"/>
<rect x="67.8811" y="184.576" width="16.3217" height="30.303" rx="3" fill="#FFE0CB"/>
<path d="M375.273 239H67.8811C63.7021 239 57 239 57 245.061V279.909C57 280.947 57 285.97 67.8811 285.97H375.273C379.452 285.97 386.154 285.97 386.154 279.909V245.061C386.154 244.023 386.154 239 375.273 239Z" fill="#E0E7EC"/>
<path fill-rule="evenodd" clip-rule="evenodd" d="M103.547 248.091C100.375 248.091 97.8042 249.318 97.8042 250.833V256.316C97.8042 257.83 100.375 259.058 103.547 259.058H350.488C353.661 259.058 356.231 257.83 356.231 256.316V250.833C356.231 249.318 353.661 248.091 350.488 248.091H103.547ZM103.547 265.912C100.375 265.912 97.8042 267.139 97.8042 268.654V274.137C97.8042 275.651 100.375 276.879 103.547 276.879H298.803C301.976 276.879 304.545 275.651 304.545 274.137V268.654C304.545 267.139 301.976 265.912 298.803 265.912H103.547Z" fill="white"/>
<rect x="67.8811" y="246.576" width="16.3217" height="30.303" rx="3" fill="#FFF8A0"/>
<path d="M375.273 301H67.8811C63.7021 301 57 301 57 307.061V341.909C57 342.947 57 347.97 67.8811 347.97H375.273C379.452 347.97 386.154 347.97 386.154 341.909V307.061C386.154 306.023 386.154 301 375.273 301Z" fill="#E0E7EC"/>
<path fill-rule="evenodd" clip-rule="evenodd" d="M103.547 310.091C100.375 310.091 97.8042 311.318 97.8042 312.833V318.316C97.8042 319.83 100.375 321.058 103.547 321.058H350.488C353.661 321.058 356.231 319.83 356.231 318.316V312.833C356.231 311.318 353.661 310.091 350.488 310.091H103.547ZM103.547 327.912C100.375 327.912 97.8042 329.139 97.8042 330.654V336.137C97.8042 337.651 100.375 338.879 103.547 338.879H298.803C301.976 338.879 304.545 337.651 304.545 336.137V330.654C304.545 329.139 301.976 327.912 298.803 327.912H103.547Z" fill="white"/>
<rect x="67.8811" y="308.576" width="16.3217" height="30.303" rx="3" fill="#C6FFC9"/>
<path d="M375.273 363H67.8811C63.7021 363 57 363 57 369.061V403.909C57 404.947 57 409.97 67.8811 409.97H375.273C379.452 409.97 386.154 409.97 386.154 403.909V369.061C386.154 368.023 386.154 363 375.273 363Z" fill="#E0E7EC"/>
<path fill-rule="evenodd" clip-rule="evenodd" d="M103.547 372.091C100.375 372.091 97.8042 373.318 97.8042 374.833V380.316C97.8042 381.83 100.375 383.058 103.547 383.058H350.488C353.661 383.058 356.231 381.83 356.231 380.316V374.833C356.231 373.318 353.661 372.091 350.488 372.091H103.547ZM103.547 389.912C100.375 389.912 97.8042 391.139 97.8042 392.654V398.137C97.8042 399.651 100.375 400.879 103.547 400.879H298.803C301.976 400.879 304.545 399.651 304.545 398.137V392.654C304.545 391.139 301.976 389.912 298.803 389.912H103.547Z" fill="white"/>
<rect x="67.8811" y="370.576" width="16.3217" height="30.303" rx="3" fill="#6FB0FB"/>
<path d="M375.273 425H67.8811C63.7021 425 57 425 57 431.061V465.909C57 466.947 57 471.97 67.8811 471.97H375.273C379.452 471.97 386.154 471.97 386.154 465.909V431.061C386.154 430.023 386.154 425 375.273 425Z" fill="#E0E7EC"/>
<path fill-rule="evenodd" clip-rule="evenodd" d="M103.547 434.091C100.375 434.091 97.8042 435.318 97.8042 436.833V442.316C97.8042 443.83 100.375 445.058 103.547 445.058H350.488C353.661 445.058 356.231 443.83 356.231 442.316V436.833C356.231 435.318 353.661 434.091 350.488 434.091H103.547ZM103.547 451.912C100.375 451.912 97.8042 453.139 97.8042 454.654V460.137C97.8042 461.651 100.375 462.879 103.547 462.879H298.803C301.976 462.879 304.545 461.651 304.545 460.137V454.654C304.545 453.139 301.976 451.912 298.803 451.912H103.547Z" fill="white"/>
<rect x="67.8811" y="432.576" width="16.3217" height="30.303" rx="3" fill="#6FB0FB"/>
<path d="M22 43L28.9282 31H15.0718L22 43Z" fill="#6DACFF"/>
<rect x="43" y="29" width="209" height="12" rx="5" fill="#D9D9D9"/>
<rect x="57" y="78" width="111" height="8" rx="4" fill="#D9D9D9"/>
<rect x="356" y="74" width="16" height="16" rx="4" fill="#D9D9D9"/>
<rect x="22" y="71" width="22" height="22" rx="4" fill="#D9D9D9"/>
<rect x="181" y="71" width="22" height="22" rx="4" fill="#C6FFC9"/>
<rect x="57" y="103" width="329" height="2" rx="1" fill="#6DACFF"/>
</g>
<defs>
<clipPath id="clip0_752_1092">
<rect width="418" height="504" rx="30" fill="white"/>
</clipPath>
</defs>
</svg>
