<svg width="181" height="245" viewBox="0 0 181 245" fill="none" xmlns="http://www.w3.org/2000/svg">
<path d="M103.297 27.3078L100.593 2.99988" stroke="#93C1FE" strokeWidth="3" stroke-linecap="round"/>
<path d="M112.032 20.0459L101.293 12.3177" stroke="#93C1FE" strokeWidth="3" stroke-linecap="round"/>
<path d="M100.767 12.9116L93.1735 21.8065" stroke="#93C1FE" strokeWidth="3" stroke-linecap="round"/>
<path d="M120.467 85.4254L121.727 61" stroke="#93C1FE" strokeWidth="3" stroke-linecap="round"/>
<path d="M130.261 79.6709L120.911 70.3084" stroke="#93C1FE" strokeWidth="3" stroke-linecap="round"/>
<path d="M120.297 70.8091L111.365 78.3596" stroke="#93C1FE" strokeWidth="3" stroke-linecap="round"/>
<path d="M93.9295 133.333L101.263 110" stroke="#93C1FE" strokeWidth="3" stroke-linecap="round"/>
<path d="M104.852 130.212L98.1433 118.808" stroke="#93C1FE" strokeWidth="3" stroke-linecap="round"/>
<path d="M97.4231 119.139L86.8859 124.213" stroke="#93C1FE" strokeWidth="3" stroke-linecap="round"/>
<path d="M98.2721 194.194L99.9526 169.794" stroke="#93C1FE" strokeWidth="3" stroke-linecap="round"/>
<path d="M108.164 188.609L98.9766 179.087" stroke="#93C1FE" strokeWidth="3" stroke-linecap="round"/>
<path d="M98.3535 179.577L89.2933 186.973" stroke="#93C1FE" strokeWidth="3" stroke-linecap="round"/>
<path d="M62.009 230.873L72.1164 208.601" stroke="#93C1FE" strokeWidth="3" stroke-linecap="round"/>
<path d="M73.229 229.099L67.9521 216.966" stroke="#93C1FE" strokeWidth="3" stroke-linecap="round"/>
<path d="M67.197 217.207L56.1225 220.967" stroke="#93C1FE" strokeWidth="3" stroke-linecap="round"/>
</svg>
