<svg width="662" height="478" viewBox="0 0 662 478" fill="none" xmlns="http://www.w3.org/2000/svg">
<rect x="2" width="660" height="478" rx="30" fill="white"/>
<path d="M2 30C2 13.4315 15.4315 0 32 0H632C648.569 0 662 13.4315 662 30V60H2V30Z" fill="#B1CEFF"/>
<path d="M586 25C586 19.4772 590.477 15 596 15H607C612.523 15 617 19.4772 617 25V36C617 41.5228 612.523 46 607 46H596C590.477 46 586 41.5228 586 36V25Z" fill="white"/>
<path d="M536 25C536 19.4772 540.477 15 546 15H557C562.523 15 567 19.4772 567 25V36C567 41.5228 562.523 46 557 46H546C540.477 46 536 41.5228 536 36V25Z" fill="white"/>
<path d="M486 25C486 19.4772 490.477 15 496 15H507C512.523 15 517 19.4772 517 25V36C517 41.5228 512.523 46 507 46H496C490.477 46 486 41.5228 486 36V25Z" fill="white"/>
<path d="M185 120H72C70.4638 120 68 120 68 124V147C68 147.685 68 151 72 151H185C186.536 151 189 151 189 147V124C189 123.315 189 120 185 120Z" fill="#E0E7EC"/>
<path fill-rule="evenodd" clip-rule="evenodd" d="M85.1111 126C83.9451 126 83 126.81 83 127.81V131.429C83 132.428 83.9451 133.238 85.1111 133.238H175.889C177.055 133.238 178 132.428 178 131.429V127.81C178 126.81 177.055 126 175.889 126H85.1111ZM85.1111 137.762C83.9451 137.762 83 138.572 83 139.571V143.19C83 144.19 83.9451 145 85.1111 145H156.889C158.055 145 159 144.19 159 143.19V139.571C159 138.572 158.055 137.762 156.889 137.762H85.1111Z" fill="white"/>
<rect x="72" y="125" width="6" height="20" rx="3" fill="#FFE0CB"/>
<path d="M185 161H72C70.4638 161 68 161 68 165V188C68 188.685 68 192 72 192H185C186.536 192 189 192 189 188V165C189 164.315 189 161 185 161Z" fill="#E0E7EC"/>
<path fill-rule="evenodd" clip-rule="evenodd" d="M85.1111 167C83.9451 167 83 167.81 83 168.81V172.429C83 173.428 83.9451 174.238 85.1111 174.238H175.889C177.055 174.238 178 173.428 178 172.429V168.81C178 167.81 177.055 167 175.889 167H85.1111ZM85.1111 178.762C83.9451 178.762 83 179.572 83 180.571V184.19C83 185.19 83.9451 186 85.1111 186H156.889C158.055 186 159 185.19 159 184.19V180.571C159 179.572 158.055 178.762 156.889 178.762H85.1111Z" fill="white"/>
<rect x="72" y="166" width="6" height="20" rx="3" fill="#D1FDCD"/>
<path d="M185 202H72C70.4638 202 68 202 68 206V229C68 229.685 68 233 72 233H185C186.536 233 189 233 189 229V206C189 205.315 189 202 185 202Z" fill="#E0E7EC"/>
<path fill-rule="evenodd" clip-rule="evenodd" d="M85.1111 208C83.9451 208 83 208.81 83 209.81V213.429C83 214.428 83.9451 215.238 85.1111 215.238H175.889C177.055 215.238 178 214.428 178 213.429V209.81C178 208.81 177.055 208 175.889 208H85.1111ZM85.1111 219.762C83.9451 219.762 83 220.572 83 221.571V225.19C83 226.19 83.9451 227 85.1111 227H156.889C158.055 227 159 226.19 159 225.19V221.571C159 220.572 158.055 219.762 156.889 219.762H85.1111Z" fill="white"/>
<rect x="72" y="207" width="6" height="20" rx="3" fill="#FFDBDB"/>
<path d="M185 243H72C70.4638 243 68 243 68 247V270C68 270.685 68 274 72 274H185C186.536 274 189 274 189 270V247C189 246.315 189 243 185 243Z" fill="#E0E7EC"/>
<path fill-rule="evenodd" clip-rule="evenodd" d="M85.1111 249C83.9451 249 83 249.81 83 250.81V254.429C83 255.428 83.9451 256.238 85.1111 256.238H175.889C177.055 256.238 178 255.428 178 254.429V250.81C178 249.81 177.055 249 175.889 249H85.1111ZM85.1111 260.762C83.9451 260.762 83 261.572 83 262.571V266.19C83 267.19 83.9451 268 85.1111 268H156.889C158.055 268 159 267.19 159 266.19V262.571C159 261.572 158.055 260.762 156.889 260.762H85.1111Z" fill="white"/>
<rect x="72" y="248" width="6" height="20" rx="3" fill="#83B9FF"/>
<path d="M455 120H342C340.464 120 338 120 338 124V147C338 147.685 338 151 342 151H455C456.536 151 459 151 459 147V124C459 123.315 459 120 455 120Z" fill="#E0E7EC"/>
<path fill-rule="evenodd" clip-rule="evenodd" d="M355.111 126C353.945 126 353 126.81 353 127.81V131.429C353 132.428 353.945 133.238 355.111 133.238H445.889C447.055 133.238 448 132.428 448 131.429V127.81C448 126.81 447.055 126 445.889 126H355.111ZM355.111 137.762C353.945 137.762 353 138.572 353 139.571V143.19C353 144.19 353.945 145 355.111 145H426.889C428.055 145 429 144.19 429 143.19V139.571C429 138.572 428.055 137.762 426.889 137.762H355.111Z" fill="white"/>
<rect x="342" y="125" width="6" height="20" rx="3" fill="#D1FDCD"/>
<path d="M455 161H342C340.464 161 338 161 338 165V188C338 188.685 338 192 342 192H455C456.536 192 459 192 459 188V165C459 164.315 459 161 455 161Z" fill="#E0E7EC"/>
<path fill-rule="evenodd" clip-rule="evenodd" d="M355.111 167C353.945 167 353 167.81 353 168.81V172.429C353 173.428 353.945 174.238 355.111 174.238H445.889C447.055 174.238 448 173.428 448 172.429V168.81C448 167.81 447.055 167 445.889 167H355.111ZM355.111 178.762C353.945 178.762 353 179.572 353 180.571V184.19C353 185.19 353.945 186 355.111 186H426.889C428.055 186 429 185.19 429 184.19V180.571C429 179.572 428.055 178.762 426.889 178.762H355.111Z" fill="white"/>
<rect x="342" y="166" width="6" height="20" rx="3" fill="#D1FDCD"/>
<path d="M455 202H342C340.464 202 338 202 338 206V229C338 229.685 338 233 342 233H455C456.536 233 459 233 459 229V206C459 205.315 459 202 455 202Z" fill="#E0E7EC"/>
<path fill-rule="evenodd" clip-rule="evenodd" d="M355.111 208C353.945 208 353 208.81 353 209.81V213.429C353 214.428 353.945 215.238 355.111 215.238H445.889C447.055 215.238 448 214.428 448 213.429V209.81C448 208.81 447.055 208 445.889 208H355.111ZM355.111 219.762C353.945 219.762 353 220.572 353 221.571V225.19C353 226.19 353.945 227 355.111 227H426.889C428.055 227 429 226.19 429 225.19V221.571C429 220.572 428.055 219.762 426.889 219.762H355.111Z" fill="white"/>
<rect x="342" y="207" width="6" height="20" rx="3" fill="#FFDBDB"/>
<path d="M455 243H342C340.464 243 338 243 338 247V270C338 270.685 338 274 342 274H455C456.536 274 459 274 459 270V247C459 246.315 459 243 455 243Z" fill="#E0E7EC"/>
<path fill-rule="evenodd" clip-rule="evenodd" d="M355.111 249C353.945 249 353 249.81 353 250.81V254.429C353 255.428 353.945 256.238 355.111 256.238H445.889C447.055 256.238 448 255.428 448 254.429V250.81C448 249.81 447.055 249 445.889 249H355.111ZM355.111 260.762C353.945 260.762 353 261.572 353 262.571V266.19C353 267.19 353.945 268 355.111 268H426.889C428.055 268 429 267.19 429 266.19V262.571C429 261.572 428.055 260.762 426.889 260.762H355.111Z" fill="white"/>
<rect x="342" y="248" width="6" height="20" rx="3" fill="#FFF9A3"/>
<path d="M320 120H207C205.464 120 203 120 203 124V147C203 147.685 203 151 207 151H320C321.536 151 324 151 324 147V124C324 123.315 324 120 320 120Z" fill="#E0E7EC"/>
<path fill-rule="evenodd" clip-rule="evenodd" d="M220.111 126C218.945 126 218 126.81 218 127.81V131.429C218 132.428 218.945 133.238 220.111 133.238H310.889C312.055 133.238 313 132.428 313 131.429V127.81C313 126.81 312.055 126 310.889 126H220.111ZM220.111 137.762C218.945 137.762 218 138.572 218 139.571V143.19C218 144.19 218.945 145 220.111 145H291.889C293.055 145 294 144.19 294 143.19V139.571C294 138.572 293.055 137.762 291.889 137.762H220.111Z" fill="white"/>
<rect x="207" y="125" width="6" height="20" rx="3" fill="#FFF9A3"/>
<path d="M320 161H207C205.464 161 203 161 203 165V188C203 188.685 203 192 207 192H320C321.536 192 324 192 324 188V165C324 164.315 324 161 320 161Z" fill="#E0E7EC"/>
<path fill-rule="evenodd" clip-rule="evenodd" d="M220.111 167C218.945 167 218 167.81 218 168.81V172.429C218 173.428 218.945 174.238 220.111 174.238H310.889C312.055 174.238 313 173.428 313 172.429V168.81C313 167.81 312.055 167 310.889 167H220.111ZM220.111 178.762C218.945 178.762 218 179.572 218 180.571V184.19C218 185.19 218.945 186 220.111 186H291.889C293.055 186 294 185.19 294 184.19V180.571C294 179.572 293.055 178.762 291.889 178.762H220.111Z" fill="white"/>
<rect x="207" y="166" width="6" height="20" rx="3" fill="#FFF9A3"/>
<path d="M185 383H72C70.4638 383 68 383 68 387V410C68 410.685 68 414 72 414H185C186.536 414 189 414 189 410V387C189 386.315 189 383 185 383Z" fill="#E0E7EC"/>
<path fill-rule="evenodd" clip-rule="evenodd" d="M85.1111 389C83.9451 389 83 389.81 83 390.81V394.429C83 395.428 83.9451 396.238 85.1111 396.238H175.889C177.055 396.238 178 395.428 178 394.429V390.81C178 389.81 177.055 389 175.889 389H85.1111ZM85.1111 400.762C83.9451 400.762 83 401.572 83 402.571V406.19C83 407.19 83.9451 408 85.1111 408H156.889C158.055 408 159 407.19 159 406.19V402.571C159 401.572 158.055 400.762 156.889 400.762H85.1111Z" fill="white"/>
<rect x="72" y="388" width="6" height="20" rx="3" fill="#FFE0CB"/>
<path d="M185 424H72C70.4638 424 68 424 68 428V451C68 451.685 68 455 72 455H185C186.536 455 189 455 189 451V428C189 427.315 189 424 185 424Z" fill="#E0E7EC"/>
<path fill-rule="evenodd" clip-rule="evenodd" d="M85.1111 430C83.9451 430 83 430.81 83 431.81V435.429C83 436.428 83.9451 437.238 85.1111 437.238H175.889C177.055 437.238 178 436.428 178 435.429V431.81C178 430.81 177.055 430 175.889 430H85.1111ZM85.1111 441.762C83.9451 441.762 83 442.572 83 443.571V447.19C83 448.19 83.9451 449 85.1111 449H156.889C158.055 449 159 448.19 159 447.19V443.571C159 442.572 158.055 441.762 156.889 441.762H85.1111Z" fill="white"/>
<rect x="72" y="429" width="6" height="20" rx="3" fill="#FFF9A3"/>
<path d="M590 120H477C475.464 120 473 120 473 124V147C473 147.685 473 151 477 151H590C591.536 151 594 151 594 147V124C594 123.315 594 120 590 120Z" fill="#E0E7EC"/>
<path fill-rule="evenodd" clip-rule="evenodd" d="M490.111 126C488.945 126 488 126.81 488 127.81V131.429C488 132.428 488.945 133.238 490.111 133.238H580.889C582.055 133.238 583 132.428 583 131.429V127.81C583 126.81 582.055 126 580.889 126H490.111ZM490.111 137.762C488.945 137.762 488 138.572 488 139.571V143.19C488 144.19 488.945 145 490.111 145H561.889C563.055 145 564 144.19 564 143.19V139.571C564 138.572 563.055 137.762 561.889 137.762H490.111Z" fill="white"/>
<rect x="477" y="125" width="6" height="20" rx="3" fill="#83B9FF"/>
<path d="M590 161H477C475.464 161 473 161 473 165V188C473 188.685 473 192 477 192H590C591.536 192 594 192 594 188V165C594 164.315 594 161 590 161Z" fill="#E0E7EC"/>
<path fill-rule="evenodd" clip-rule="evenodd" d="M490.111 167C488.945 167 488 167.81 488 168.81V172.429C488 173.428 488.945 174.238 490.111 174.238H580.889C582.055 174.238 583 173.428 583 172.429V168.81C583 167.81 582.055 167 580.889 167H490.111ZM490.111 178.762C488.945 178.762 488 179.572 488 180.571V184.19C488 185.19 488.945 186 490.111 186H561.889C563.055 186 564 185.19 564 184.19V180.571C564 179.572 563.055 178.762 561.889 178.762H490.111Z" fill="white"/>
<rect x="477" y="166" width="6" height="20" rx="3" fill="#83B9FF"/>
<path d="M590 202H477C475.464 202 473 202 473 206V229C473 229.685 473 233 477 233H590C591.536 233 594 233 594 229V206C594 205.315 594 202 590 202Z" fill="#E0E7EC"/>
<path fill-rule="evenodd" clip-rule="evenodd" d="M490.111 208C488.945 208 488 208.81 488 209.81V213.429C488 214.428 488.945 215.238 490.111 215.238H580.889C582.055 215.238 583 214.428 583 213.429V209.81C583 208.81 582.055 208 580.889 208H490.111ZM490.111 219.762C488.945 219.762 488 220.572 488 221.571V225.19C488 226.19 488.945 227 490.111 227H561.889C563.055 227 564 226.19 564 225.19V221.571C564 220.572 563.055 219.762 561.889 219.762H490.111Z" fill="white"/>
<rect x="477" y="207" width="6" height="20" rx="3" fill="#FFDBDB"/>
<path d="M455 284H342C340.464 284 338 284 338 288V311C338 311.685 338 315 342 315H455C456.536 315 459 315 459 311V288C459 287.315 459 284 455 284Z" fill="#E0E7EC"/>
<path fill-rule="evenodd" clip-rule="evenodd" d="M355.111 290C353.945 290 353 290.81 353 291.81V295.429C353 296.428 353.945 297.238 355.111 297.238H445.889C447.055 297.238 448 296.428 448 295.429V291.81C448 290.81 447.055 290 445.889 290H355.111ZM355.111 301.762C353.945 301.762 353 302.572 353 303.571V307.19C353 308.19 353.945 309 355.111 309H426.889C428.055 309 429 308.19 429 307.19V303.571C429 302.572 428.055 301.762 426.889 301.762H355.111Z" fill="white"/>
<rect x="342" y="289" width="6" height="20" rx="3" fill="#FFF9A3"/>
<path d="M450 350.5H88C81 350.5 81 352.655 81 354V359.5C81 360.845 81 363 88 363H450C457 363 457 360.845 457 359.5V354C457 352.655 457 350.5 450 350.5Z" fill="#D9D9D9"/>
<path d="M68 363L74.9282 351H61.0718L68 363Z" fill="#6DACFF"/>
<rect x="523" y="352" width="10" height="10" fill="#D1FDCD"/>
<rect x="499" y="352" width="10" height="10" fill="#FFE0CB"/>
<rect x="547" y="352" width="10" height="10" fill="#83B9FF"/>
<rect x="571" y="352" width="10" height="10" fill="#FFDBDB"/>
<rect x="595" y="352" width="10" height="10" fill="#FFF9A3"/>
<path d="M450 87.5H88C81 87.5 81 89.6553 81 91V96.5C81 97.8447 81 100 88 100H450C457 100 457 97.8447 457 96.5V91C457 89.6553 457 87.5 450 87.5Z" fill="#D9D9D9"/>
<path d="M68 100L74.9282 88H61.0718L68 100Z" fill="#6DACFF"/>
<rect x="523" y="89" width="10" height="10" fill="#D1FDCD"/>
<rect x="499" y="89" width="10" height="10" fill="#FFE0CB"/>
<rect x="547" y="89" width="10" height="10" fill="#83B9FF"/>
<rect x="571" y="89" width="10" height="10" fill="#FFDBDB"/>
<rect x="595" y="89" width="10" height="10" fill="#FFF9A3"/>
</svg>
